<svg width="24" height="25" viewBox="0 0 24 25" fill="none" xmlns="http://www.w3.org/2000/svg">
<path d="M12 0.5C18.6274 0.5 24 5.8725 24 12.5C24 19.1275 18.6274 24.5 12 24.5C5.37258 24.5 0 19.1275 0 12.5C1.64927e-05 5.87252 5.37259 0.500032 12 0.5ZM14.8086 4.45117C12.5704 2.16408 8.69614 3.27495 8.41016 6.58203C8.05286 10.3563 5.314 8.30717 3.2793 10.4062C2.67782 11.0994 2.31934 12.0689 2.43945 12.9805C2.61533 14.2484 3.59951 15.3301 4.85547 15.6367C6.28399 16.0179 7.76558 15.8494 8.24902 17.6045C8.52494 18.7669 8.43025 19.8411 9.3916 20.748C11.07 22.3278 14.1104 22.1368 15.1992 20.001C15.5785 19.3327 15.6351 18.5432 15.7754 17.8037C15.9178 17.0192 16.3876 16.3906 17.126 16.123C18.1282 15.7285 19.3775 15.7984 20.2998 15.1504C21.2679 14.4962 21.7891 13.246 21.6152 12.0977L21.6133 12.0859V12.0869C21.4233 10.8458 20.3982 9.80977 19.2227 9.44336C18.526 9.21083 17.7529 9.22723 17.0723 8.94434C16.458 8.71037 16.0411 8.1988 15.8545 7.57422C15.5431 6.46566 15.6799 5.36478 14.8086 4.45117ZM11.4756 9.78418C13.8326 9.52803 15.4323 10.7495 15.0537 13.2148L15.0508 13.2275C14.8539 14.3653 14.0667 15.0923 12.9404 15.2422C12.2578 15.3497 11.4812 15.3318 10.8086 15.1719C10.4415 15.0818 10.1051 14.9347 9.83594 14.7197C8.90413 13.9412 8.75138 12.3981 9.19043 11.2988C9.56642 10.38 10.5044 9.88037 11.4756 9.78418Z" fill="#F6F3EB"/>
</svg>
