<svg width="304" height="291" viewBox="0 0 304 291" fill="none" xmlns="http://www.w3.org/2000/svg">
<g filter="url(#filter0_d_23_853)">
<path d="M226.557 25.0192C226.557 25.0192 233.496 30.9576 233.871 31.3288C234.996 32.6278 237.81 38.0095 238.747 38.7518C239.873 39.6796 241.936 39.6796 242.873 40.2364C246.062 42.4633 257.502 56.3814 260.315 60.2785C262.753 63.4332 262.566 66.7736 264.816 69.9283C265.942 71.5985 268.942 73.2687 269.13 73.4543C269.693 74.3821 269.13 76.0523 269.693 77.3513C271.193 80.8773 271.193 78.0936 272.131 83.4753C273.068 88.857 274.944 88.4858 276.444 91.455C277.569 93.6819 276.632 96.28 277.382 97.9502C278.132 99.9915 280.57 101.847 280.945 103.517C282.071 107.971 283.008 113.353 284.134 118.363C286.384 127.085 286.197 146.571 285.634 157.52C285.634 160.674 285.822 161.973 285.822 163.644C285.822 164.2 284.321 164.943 283.946 166.056C283.759 166.798 284.509 168.469 284.134 169.582C283.196 173.85 282.446 177.562 281.696 181.644C280.195 189.624 275.882 192.964 273.256 199.645C271.756 203.357 272.318 208.924 268.942 213.563C267.254 215.976 264.441 216.904 262.378 219.502C257.314 225.997 257.69 229.894 250.188 236.389C244.561 241.214 240.248 248.451 234.246 253.647C231.433 256.06 223.931 257.545 222.993 259.029C222.431 259.957 223.368 261.07 223.181 261.813C221.68 267.566 216.804 264.596 213.428 266.081C212.303 266.638 209.865 269.421 207.99 270.535C206.677 271.463 197.299 276.473 196.737 276.844C194.486 277.587 192.236 276.844 190.548 277.216C189.61 277.401 189.798 279.071 188.672 279.628C174.794 284.639 138.785 287.051 123.781 285.566C118.155 285.01 109.527 281.484 103.526 279.999C92.6482 277.401 93.7735 279.442 83.4584 273.133C80.2701 271.277 74.6437 268.865 71.6429 266.823C66.5792 263.483 61.8905 257.173 55.7014 257.359L56.4516 254.019C55.1388 253.462 52.3256 253.462 51.3879 252.72C50.4501 251.977 50.6377 250.493 50.075 249.936C48.1996 247.524 39.9475 241.585 36.5717 238.059C33.5709 234.904 24.1936 223.956 22.5056 220.244C21.7554 218.574 22.5056 216.533 21.943 215.419C21.7554 215.048 17.817 213.563 16.3166 211.522C12.9407 206.326 9.75244 191.851 8.62716 185.356C4.68867 184.057 0.937735 171.252 1.12528 167.912C1.12528 166.798 2.43811 165.871 2.43811 165.314C2.43811 164.757 0.750188 163.273 0.375094 161.788C0 160.303 0.750188 156.406 0.562641 154.551C0.187547 146.756 1.12528 140.447 0.937735 132.282C0.937735 130.797 0 129.498 0 128.013C0 126.529 1.87547 126.9 2.25056 125.23C2.62566 123.559 1.12528 122.26 1.12528 120.776C1.12528 119.291 3.00075 116.322 3.37585 113.91C3.56339 111.683 2.8132 107.6 3.75094 105.002C4.31358 103.703 6.56414 103.517 7.12678 101.291C7.68942 99.0636 7.12678 97.0223 7.68943 95.1665C8.06452 94.0531 9.5649 93.4964 9.93999 92.3829C10.3151 90.8983 9.1898 87.9291 11.0653 85.8878C12.003 84.9599 14.4411 85.1455 14.8162 83.4753C15.1913 81.8051 14.6287 76.9802 16.129 74.1966C16.6917 73.2687 18.9422 72.712 19.88 71.2274C21.0053 69.7428 21.1928 67.1447 22.5056 65.4745C30.5702 54.1545 38.072 45.0613 48.5747 35.9681C49.3248 35.2258 51.0128 35.4114 51.3879 35.0403C51.9505 34.4835 51.2003 32.4422 52.3256 31.5143C53.4509 30.5865 57.3894 30.772 59.4524 28.7307C63.766 24.4625 66.3916 19.6375 73.8935 17.4106C75.5814 16.8539 77.832 17.4106 79.1448 16.8539C80.4576 16.1116 80.0826 13.8847 81.3954 12.9568C83.2709 11.8434 87.2093 11.8434 89.4599 11.1011C92.0856 10.1732 99.0248 5.1627 99.775 4.79155C101.463 4.23482 103.526 4.79155 105.214 4.4204C134.471 -3.37375 164.666 -0.218973 193.548 8.8742C195.611 9.43092 195.611 12.2145 197.112 12.7713C199.175 13.5136 201.988 12.4001 204.239 13.1424C208.177 14.2559 214.929 21.8644 218.117 23.349C220.368 24.2769 222.806 23.349 225.431 24.8336L226.557 25.0192ZM255.627 121.704C254.876 120.59 251.876 115.58 251.5 115.394C250.563 114.652 236.122 106.487 234.996 106.115C229.557 104.445 223.181 102.961 217.93 101.662C214.741 100.734 209.677 100.734 206.677 99.6203C203.113 98.3213 195.236 91.2695 193.736 87.558C192.798 85.3311 193.548 82.3619 192.986 80.6917C191.673 76.609 189.235 72.1552 188.11 67.5159C187.359 64.7322 186.984 55.4535 186.422 54.3401C186.047 53.2266 171.605 37.8239 170.293 37.2672C165.416 35.0403 161.103 35.4114 156.602 34.298C153.601 33.5557 150.413 31.3288 146.849 30.772C136.347 29.1019 118.717 35.7826 111.403 42.8344C99.775 53.7833 100.9 62.1342 96.3991 75.8667C95.8365 77.3513 93.961 79.0215 93.7735 80.6917C93.7735 81.8051 95.0863 82.5474 94.8988 83.4753C94.3361 87.9291 89.4599 94.0531 85.8965 96.8367C82.3331 99.8059 62.8282 102.961 56.6392 105.002C47.6369 107.971 36.1966 114.095 31.1328 122.26C29.4449 125.044 28.8822 129.498 27.9445 131.91C27.5694 133.024 24.9437 135.807 23.4434 136.179V137.292C27.3819 141.189 24.5686 147.128 25.3188 150.097C25.3188 150.839 29.4449 160.86 29.82 161.417C30.9452 163.273 32.8207 163.644 34.1335 165.499C35.4464 167.355 35.8215 171.252 36.009 171.438C36.3841 171.809 45.7615 174.407 47.8245 175.892C51.9505 178.861 48.5747 178.49 55.3264 180.16C61.5154 181.644 67.892 182.201 74.4561 184.242C83.6459 187.026 81.5829 187.026 87.772 192.965C88.5222 193.707 90.3976 193.707 90.7727 194.264C91.1478 194.635 95.4614 202.8 95.4614 203.171C96.3991 206.883 96.024 215.976 97.1493 218.759C98.6497 222.285 98.2746 220.058 99.3999 224.698C101.088 231.564 106.339 241.214 112.716 244.554C116.279 246.41 122.468 247.338 125.469 249.379C126.969 250.307 127.344 251.977 128.282 252.534C132.971 255.132 148.35 253.276 153.976 252.534C156.414 252.348 160.165 253.091 162.228 252.534C163.166 252.348 162.978 250.493 164.104 250.122C165.604 249.565 167.479 250.307 168.792 249.936C168.98 249.936 172.918 246.225 173.106 246.039C173.481 245.482 172.543 244.183 173.481 243.07C174.794 241.4 181.921 237.688 182.296 236.946C182.858 236.018 188.485 222.656 188.672 221.729C189.235 214.12 190.173 210.223 193.173 203.171C193.736 202.058 192.798 200.573 193.548 198.717C195.611 193.15 198.237 193.15 201.988 190.366C203.301 189.439 203.488 187.768 204.614 187.212C206.677 186.469 208.927 186.841 211.178 186.284C214.554 185.356 217.367 182.572 219.242 182.016C224.869 179.974 233.496 180.531 238.747 179.046C239.497 178.861 249.625 172.18 250.375 171.438L262.191 155.85C261.253 148.612 262.191 141.004 261.065 133.766C260.878 132.096 256.564 123.188 255.814 122.075L255.627 121.704Z" fill="#EA5817"/>
<path d="M162.228 113.534C170.48 120.4 170.293 119.472 175.357 129.679C175.732 130.607 177.045 130.235 177.607 132.648C178.92 137.844 177.607 145.267 177.045 150.649C176.67 154.731 177.795 153.803 174.794 158.443C173.481 160.484 171.793 163.824 171.043 164.938C170.668 165.495 167.855 166.237 166.73 166.979C165.417 167.907 165.417 170.134 162.791 169.392L163.541 172.732C159.415 171.804 155.664 174.588 152.288 175.145C147.037 175.887 134.471 174.402 129.22 173.289C126.407 172.732 120.405 169.577 118.53 167.35C117.217 165.68 116.279 163.082 114.779 161.041C113.091 158.814 111.778 160.484 111.028 155.659C109.715 146.566 109.715 144.525 111.403 134.689C111.591 133.205 111.028 131.349 111.403 130.05C113.654 121.328 122.281 118.73 127.532 112.235L129.22 111.678C137.847 111.678 146.287 109.822 154.914 110.75C159.04 111.121 159.603 111.307 162.416 113.719L162.228 113.534Z" fill="#EA5817"/>
</g>
<defs>
<filter id="filter0_d_23_853" x="0" y="0" width="303.875" height="290.469" filterUnits="userSpaceOnUse" color-interpolation-filters="sRGB">
<feFlood flood-opacity="0" result="BackgroundImageFix"/>
<feColorMatrix in="SourceAlpha" type="matrix" values="0 0 0 0 0 0 0 0 0 0 0 0 0 0 0 0 0 0 127 0" result="hardAlpha"/>
<feOffset dx="17.875" dy="4.46875"/>
<feComposite in2="hardAlpha" operator="out"/>
<feColorMatrix type="matrix" values="0 0 0 0 0.35 0 0 0 0 0.35 0 0 0 0 0.35 0 0 0 1 0"/>
<feBlend mode="normal" in2="BackgroundImageFix" result="effect1_dropShadow_23_853"/>
<feBlend mode="normal" in="SourceGraphic" in2="effect1_dropShadow_23_853" result="shape"/>
</filter>
</defs>
</svg>
