<svg width="32" height="32" viewBox="0 0 32 32" fill="none" xmlns="http://www.w3.org/2000/svg">
<mask id="path-1-inside-1_337_202" fill="white">
<path d="M16 0C24.8366 0 32 7.16335 32 16C32 24.8367 24.8366 32 16 32C7.16344 32 0 24.8367 0 16C4.9478e-05 7.16338 7.16347 4.22665e-05 16 0ZM19.7451 5.26758C16.7609 2.21844 11.5944 3.69932 11.2129 8.1084C10.7367 13.1418 7.08515 10.4095 4.37207 13.209C3.57018 14.1331 3.09185 15.4252 3.25195 16.6406C3.48647 18.3313 4.79986 19.7729 6.47461 20.1816C8.37936 20.6899 10.3536 20.4661 10.998 22.8066C11.3659 24.3564 11.24 25.7879 12.5215 26.9971C14.7593 29.1037 18.8138 28.8489 20.2656 26.001C20.7711 25.1101 20.8462 24.0581 21.0332 23.0723C21.2229 22.0263 21.8496 21.1879 22.834 20.8311C24.1704 20.3049 25.8365 20.3974 27.0664 19.5332C28.357 18.6609 29.0521 16.9949 28.8203 15.4639L28.8174 15.4482H28.8184C28.5649 13.7937 27.198 12.4124 25.6309 11.9238C24.7017 11.6137 23.6703 11.6362 22.7627 11.2588C21.9437 10.9468 21.3875 10.2654 21.1387 9.43262C20.7234 7.9545 20.9069 6.48575 19.7451 5.26758ZM15.3008 12.3789C18.4435 12.0374 20.5761 13.6659 20.0713 16.9531L20.0674 16.9697V16.9688C19.8051 18.4864 18.7559 19.4563 17.2539 19.6562C16.3436 19.7996 15.3079 19.7758 14.4111 19.5625C13.9216 19.4424 13.4732 19.2458 13.1143 18.959C11.872 17.921 11.6687 15.865 12.2539 14.3994C12.7551 13.1741 14.0057 12.5072 15.3008 12.3789Z"/>
</mask>
<path d="M16 0V-1H16L16 0ZM32 16H33V16L32 16ZM16 32L16 33H16V32ZM0 16L-1 16V16H0ZM19.7451 5.26758L20.4688 4.57736L20.4598 4.56812L19.7451 5.26758ZM11.2129 8.1084L12.2085 8.20259L12.2092 8.19461L11.2129 8.1084ZM4.37207 13.209L3.65396 12.5131L3.63481 12.5328L3.61678 12.5536L4.37207 13.209ZM3.25195 16.6406L2.26049 16.7712L2.26144 16.778L3.25195 16.6406ZM6.47461 20.1816L6.73241 19.2154L6.7221 19.2127L6.71173 19.2102L6.47461 20.1816ZM10.998 22.8066L11.971 22.5757L11.9669 22.5584L11.9622 22.5412L10.998 22.8066ZM12.5215 26.9971L11.8352 27.7244L11.836 27.7252L12.5215 26.9971ZM20.2656 26.001L19.3959 25.5075L19.3849 25.5269L19.3747 25.5468L20.2656 26.001ZM21.0332 23.0723L22.0157 23.2586L22.0171 23.2507L21.0332 23.0723ZM22.834 20.8311L23.1748 21.7712L23.1876 21.7665L23.2004 21.7615L22.834 20.8311ZM27.0664 19.5332L26.5064 18.7047L26.4989 18.7098L26.4915 18.715L27.0664 19.5332ZM28.8203 15.4639L29.809 15.3142L29.8064 15.2968L29.8032 15.2796L28.8203 15.4639ZM28.8174 15.4482V14.4482H27.6125L27.8345 15.6325L28.8174 15.4482ZM28.8184 15.4482V16.4482H29.9832L29.8068 15.2968L28.8184 15.4482ZM25.6309 11.9238L25.3142 12.8724L25.3237 12.8755L25.3332 12.8785L25.6309 11.9238ZM22.7627 11.2588L23.1466 10.3354L23.1327 10.3296L23.1186 10.3243L22.7627 11.2588ZM21.1387 9.43262L20.1759 9.70307L20.1782 9.71101L20.1805 9.71892L21.1387 9.43262ZM15.3008 12.3789L15.3993 13.3741L15.4088 13.3731L15.3008 12.3789ZM20.0713 16.9531L21.0447 17.1822L21.0537 17.1438L21.0597 17.1049L20.0713 16.9531ZM20.0674 16.9697H19.0674L21.0408 17.1988L20.0674 16.9697ZM20.0674 16.9688H21.0674L19.082 16.7985L20.0674 16.9688ZM17.2539 19.6562L17.122 18.665L17.1101 18.6666L17.0983 18.6684L17.2539 19.6562ZM14.4111 19.5625L14.1728 20.5337L14.1797 20.5354L14.4111 19.5625ZM13.1143 18.959L12.4731 19.7264L12.4814 19.7334L12.49 19.7402L13.1143 18.959ZM12.2539 14.3994L11.3283 14.0208L11.3252 14.0286L12.2539 14.3994ZM16 0V1C24.2843 1 31 7.71563 31 16L32 16L33 16C32.9999 6.61107 25.3889 -1 16 -1V0ZM32 16H31C31 24.2844 24.2843 31 16 31V32V33C25.3889 33 33 25.389 33 16H32ZM16 32L16 31C7.71571 31 1 24.2844 1 16H0H-1C-1 25.389 6.61116 33 16 33L16 32ZM0 16L1 16C1.00005 7.71567 7.71575 1.00004 16 1L16 0L16 -1C6.61118 -0.999955 -0.999947 6.61109 -1 16L0 16ZM19.7451 5.26758L20.4598 4.56812C18.6965 2.7665 16.2634 2.2872 14.2021 2.93749C12.1227 3.5935 10.444 5.39498 10.2166 8.02218L11.2129 8.1084L12.2092 8.19461C12.3634 6.41273 13.4586 5.26924 14.8039 4.84482C16.1673 4.41469 17.8095 4.71952 19.0304 5.96704L19.7451 5.26758ZM11.2129 8.1084L10.2173 8.01421C10.109 9.15886 9.83461 9.68838 9.58568 9.9614C9.34081 10.23 8.99785 10.3885 8.41114 10.5209C7.32551 10.766 5.27969 10.8355 3.65396 12.5131L4.37207 13.209L5.09018 13.9049C6.17753 12.7829 7.31401 12.8189 8.85148 12.4719C9.57631 12.3083 10.4051 12.0311 11.0636 11.3089C11.7181 10.5911 12.0786 9.57464 12.2084 8.20259L11.2129 8.1084ZM4.37207 13.209L3.61678 12.5536C2.66159 13.6544 2.05673 15.2241 2.26052 16.7712L3.25195 16.6406L4.24339 16.51C4.12698 15.6263 4.47878 14.6118 5.12736 13.8644L4.37207 13.209ZM3.25195 16.6406L2.26144 16.778C2.55316 18.8811 4.17046 20.6486 6.23749 21.1531L6.47461 20.1816L6.71173 19.2102C5.42925 18.8971 4.41978 17.7815 4.24247 16.5032L3.25195 16.6406ZM6.47461 20.1816L6.21681 21.1478C6.73958 21.2873 7.27149 21.3775 7.70953 21.4598C8.1715 21.5467 8.54298 21.627 8.86229 21.745C9.16975 21.8587 9.39429 21.9956 9.56814 22.1755C9.73965 22.3529 9.90999 22.622 10.0339 23.0721L10.998 22.8066L11.9622 22.5412C11.7639 21.821 11.4458 21.2404 11.0063 20.7856C10.5692 20.3333 10.0603 20.0556 9.55558 19.869C9.06268 19.6869 8.54318 19.5816 8.07914 19.4943C7.59116 19.4025 7.16201 19.3301 6.73241 19.2154L6.47461 20.1816ZM10.998 22.8066L10.0251 23.0376C10.1073 23.3838 10.163 23.728 10.2239 24.1047C10.2827 24.469 10.3476 24.8722 10.4467 25.2708C10.6527 26.0995 11.0161 26.9516 11.8352 27.7244L12.5215 26.9971L13.2078 26.2697C12.7453 25.8334 12.531 25.3651 12.3876 24.7883C12.312 24.4842 12.2593 24.1634 12.1983 23.7857C12.1392 23.4203 12.0728 23.0044 11.971 22.5757L10.998 22.8066ZM12.5215 26.9971L11.836 27.7252C13.1853 28.9953 15.0547 29.5358 16.7937 29.3514C18.5443 29.1658 20.2512 28.2309 21.1565 26.4552L20.2656 26.001L19.3747 25.5468C18.8281 26.6189 17.7819 27.2354 16.5828 27.3625C15.3721 27.4909 14.0955 27.1054 13.2069 26.2689L12.5215 26.9971ZM20.2656 26.001L21.1354 26.4945C21.4599 25.9226 21.6317 25.3247 21.7472 24.7793C21.8474 24.3057 21.9443 23.635 22.0157 23.2586L21.0332 23.0723L20.0507 22.8859C19.9351 23.4953 19.9009 23.8436 19.7905 24.3651C19.6953 24.815 19.5768 25.1886 19.3959 25.5075L20.2656 26.001ZM21.0332 23.0723L22.0171 23.2507C22.1529 22.5025 22.5724 21.9896 23.1748 21.7712L22.834 20.8311L22.4932 19.8909C21.1268 20.3862 20.293 21.55 20.0493 22.8938L21.0332 23.0723ZM22.834 20.8311L23.2004 21.7615C23.7617 21.5405 24.3698 21.4563 25.1903 21.2886C25.9461 21.1342 26.8461 20.9101 27.6413 20.3514L27.0664 19.5332L26.4915 18.715C26.0568 19.0204 25.5088 19.1822 24.7899 19.3291C24.1358 19.4628 23.2427 19.5954 22.4676 19.9006L22.834 20.8311ZM27.0664 19.5332L27.6264 20.3617C29.249 19.2651 30.0964 17.2117 29.809 15.3142L28.8203 15.4639L27.8316 15.6136C28.0079 16.7781 27.465 18.0568 26.5064 18.7047L27.0664 19.5332ZM28.8203 15.4639L29.8032 15.2796L29.8003 15.264L28.8174 15.4482L27.8345 15.6325L27.8374 15.6482L28.8203 15.4639ZM28.8174 15.4482V16.4482H28.8184V15.4482V14.4482H28.8174V15.4482ZM28.8184 15.4482L29.8068 15.2968C29.4867 13.2073 27.8018 11.5531 25.9285 10.9691L25.6309 11.9238L25.3332 12.8785C26.5942 13.2716 27.6431 14.3801 27.8299 15.5997L28.8184 15.4482ZM25.6309 11.9238L25.9475 10.9753C25.3897 10.7891 24.8066 10.7048 24.3513 10.6298C23.861 10.549 23.4814 10.4746 23.1466 10.3354L22.7627 11.2588L22.3788 12.1822C22.9517 12.4204 23.5416 12.5234 24.0261 12.6032C24.5457 12.6888 24.9429 12.7484 25.3142 12.8724L25.6309 11.9238ZM22.7627 11.2588L23.1186 10.3243C22.6345 10.1399 22.2711 9.72964 22.0968 9.14632L21.1387 9.43262L20.1805 9.71892C20.5039 10.8011 21.2529 11.7538 22.4067 12.1933L22.7627 11.2588ZM21.1387 9.43262L22.1014 9.16216C22.0135 8.84923 21.9543 8.5261 21.8961 8.16889C21.8406 7.82768 21.7821 7.42709 21.6996 7.04262C21.5274 6.2409 21.225 5.3704 20.4688 4.57742L19.7451 5.26758L19.0215 5.95774C19.427 6.38293 19.6138 6.85588 19.7441 7.46262C19.8128 7.78237 19.859 8.10225 19.9221 8.49021C19.9827 8.86218 20.0562 9.27694 20.1759 9.70307L21.1387 9.43262ZM15.3008 12.3789L15.4088 13.3731C16.8081 13.221 17.8046 13.5271 18.3855 14.0491C18.9346 14.5425 19.2984 15.3979 19.0829 16.8013L20.0713 16.9531L21.0597 17.1049C21.349 15.2211 20.8989 13.6187 19.7222 12.5614C18.5773 11.5327 16.9362 11.1953 15.1927 11.3848L15.3008 12.3789ZM20.0713 16.9531L19.0979 16.7241L19.094 16.7407L20.0674 16.9697L21.0408 17.1988L21.0447 17.1822L20.0713 16.9531ZM20.0674 16.9697H21.0674V16.9688H20.0674H19.0674V16.9697H20.0674ZM20.0674 16.9688L19.082 16.7985C18.8964 17.8725 18.2036 18.521 17.122 18.665L17.2539 19.6562L17.3858 20.6475C19.3082 20.3917 20.7139 19.1003 21.0528 17.139L20.0674 16.9688ZM17.2539 19.6562L17.0983 18.6684C16.3053 18.7933 15.4018 18.7702 14.6425 18.5896L14.4111 19.5625L14.1797 20.5354C15.2141 20.7814 16.3819 20.8059 17.4095 20.6441L17.2539 19.6562ZM14.4111 19.5625L14.6494 18.5913C14.2619 18.4962 13.9565 18.352 13.7386 18.1778L13.1143 18.959L12.49 19.7402C12.9898 20.1396 13.5812 20.3885 14.1728 20.5337L14.4111 19.5625ZM13.1143 18.959L13.7555 18.1916C13.3655 17.8658 13.0916 17.3369 12.9861 16.6808C12.8808 16.0255 12.9597 15.3286 13.1826 14.7702L12.2539 14.3994L11.3252 14.0286C10.963 14.9358 10.8509 15.9997 11.0115 16.9983C11.1719 17.9961 11.6208 19.0142 12.4731 19.7264L13.1143 18.959ZM12.2539 14.3994L13.1795 14.778C13.4956 14.0052 14.3377 13.4792 15.3993 13.374L15.3008 12.3789L15.2022 11.3838C13.6736 11.5352 12.0146 12.3431 11.3283 14.0208L12.2539 14.3994Z" fill="#171414" mask="url(#path-1-inside-1_337_202)"/>
</svg>
