<svg width="606" height="661" viewBox="0 0 606 661" fill="none" xmlns="http://www.w3.org/2000/svg">
<g opacity="0.1">
<path d="M468.615 57.8242C468.615 57.8242 484.653 71.5489 485.52 72.4067C488.121 75.409 494.623 87.8471 496.79 89.5627C499.391 91.7072 504.159 91.7072 506.326 92.9939C513.695 98.1407 540.136 130.308 546.638 139.315C552.273 146.606 551.839 154.326 557.041 161.618C559.641 165.478 566.577 169.338 567.01 169.767C568.31 171.911 567.01 175.771 568.31 178.774C571.778 186.923 571.778 180.489 573.945 192.927C576.113 205.365 580.447 204.508 583.915 211.37C586.516 216.517 584.348 222.521 586.082 226.381C587.816 231.099 593.451 235.388 594.318 239.248C596.919 249.542 599.086 261.98 601.687 273.56C606.888 293.718 606.455 338.753 605.154 364.058C605.154 371.349 605.588 374.351 605.588 378.211C605.588 379.498 602.12 381.214 601.253 383.787C600.82 385.503 602.553 389.363 601.687 391.936C599.519 401.801 597.785 410.379 596.052 419.815C592.584 438.257 582.614 445.977 576.546 461.418C573.078 469.996 574.379 482.863 566.577 493.585C562.675 499.161 556.174 501.305 551.406 507.31C539.702 522.321 540.569 531.328 523.231 546.34C510.227 557.491 500.258 574.218 486.387 586.227C479.885 591.803 462.547 595.234 460.38 598.665C459.079 600.81 461.247 603.383 460.813 605.099C457.346 618.395 446.076 611.532 438.273 614.964C435.673 616.25 430.038 622.684 425.703 625.257C422.669 627.402 400.996 638.982 399.696 639.84C394.494 641.555 389.293 639.84 385.392 640.697C383.224 641.126 383.658 644.986 381.057 646.273C348.981 657.853 265.758 663.429 231.081 659.998C218.078 658.711 198.139 650.562 184.268 647.131C159.127 641.126 161.728 645.844 137.888 631.262C130.519 626.973 117.516 621.397 110.58 616.679C98.877 608.959 88.0406 594.376 73.7366 594.805L75.4704 587.085C72.4362 585.798 65.9343 585.798 63.7671 584.083C61.5998 582.367 62.0332 578.936 60.7329 577.649C56.3983 572.074 37.3262 558.349 29.524 550.2C22.5887 542.909 0.915882 517.604 -2.98523 509.026C-4.71906 505.165 -2.98523 500.448 -4.28559 497.874C-4.71905 497.016 -13.8216 493.585 -17.2893 488.867C-25.0915 476.858 -32.4603 443.404 -35.061 428.393C-44.1636 425.39 -52.8327 395.796 -52.3993 388.076C-52.3993 385.503 -49.3651 383.358 -49.3651 382.072C-49.3651 380.785 -53.2662 377.354 -54.1331 373.922C-55 370.491 -53.2662 361.484 -53.6996 357.195C-54.5665 339.182 -52.3993 324.599 -52.8327 305.728C-52.8327 302.296 -55 299.294 -55 295.863C-55 292.432 -50.6654 293.29 -49.7985 289.429C-48.9316 285.569 -52.3993 282.567 -52.3993 279.136C-52.3993 275.705 -48.0647 268.842 -47.1978 263.267C-46.7643 258.12 -48.4982 248.684 -46.3309 242.68C-45.0305 239.677 -39.829 239.248 -38.5287 234.102C-37.2283 228.955 -38.5287 224.237 -37.2283 219.948C-36.3614 217.374 -32.8937 216.088 -32.0268 213.514C-31.1599 210.083 -33.7606 203.221 -29.4261 198.503C-27.2588 196.358 -21.6239 196.787 -20.7569 192.927C-19.89 189.067 -21.1904 177.916 -17.7227 171.482C-16.4224 169.338 -11.2209 168.051 -9.05362 164.62C-6.45288 161.189 -6.01942 155.184 -2.98523 151.324C15.6534 125.161 32.9917 104.145 57.2652 83.1292C58.999 81.4136 62.9002 81.8425 63.7671 80.9847C65.0674 79.698 63.3336 74.9801 65.9343 72.8356C68.5351 70.6911 77.6377 71.12 82.4057 66.4022C92.3752 56.5375 98.4436 45.3861 115.782 40.2393C119.683 38.9526 124.884 40.2393 127.919 38.9526C130.953 37.2371 130.086 32.0903 133.12 29.9458C137.455 27.3724 146.557 27.3724 151.759 25.6568C157.827 23.5123 173.865 11.932 175.599 11.0742C179.5 9.78754 184.268 11.0742 188.169 10.2164C255.788 -7.7973 325.575 -0.506028 392.327 20.51C397.095 21.7967 397.095 28.2302 400.563 29.5169C405.331 31.2325 411.833 28.6591 417.034 30.3747C426.137 32.9481 441.741 50.5329 449.11 53.9641C454.311 56.1086 459.946 53.9641 466.015 57.3953L468.615 57.8242ZM535.801 281.28C534.067 278.707 527.132 267.127 526.265 266.698C524.098 264.982 490.722 246.111 488.121 245.253C475.551 241.393 460.813 237.962 448.676 234.959C441.308 232.815 429.604 232.815 422.669 230.241C414.433 227.239 396.228 210.941 392.761 202.363C390.593 197.216 392.327 190.354 391.027 186.494C387.992 177.058 382.358 166.764 379.757 156.042C378.023 149.609 377.156 128.164 375.856 125.59C374.989 123.017 341.613 87.4182 338.578 86.1315C327.309 80.9847 317.339 81.8425 306.936 79.2691C300.001 77.5535 292.632 72.4067 284.396 71.12C260.123 67.26 219.378 82.7003 202.473 98.9985C175.599 124.303 178.2 143.604 167.797 175.342C166.496 178.774 162.162 182.634 161.728 186.494C161.728 189.067 164.762 190.783 164.329 192.927C163.029 203.221 151.759 217.374 143.523 223.808C135.287 230.67 90.2079 237.962 75.9039 242.68C55.0979 249.542 28.6571 263.696 16.9538 282.567C13.0527 289.001 11.7523 299.294 9.58501 304.87C8.7181 307.443 2.64971 313.877 -0.817944 314.734V317.308C8.28464 326.315 1.78279 340.039 3.51662 346.902C3.51662 348.617 13.0527 371.778 13.9196 373.065C16.5203 377.354 20.8549 378.211 23.8891 382.5C26.9233 386.789 27.7902 395.796 28.2236 396.225C29.0906 397.083 50.7634 403.088 55.5314 406.519C65.0674 413.381 57.2652 412.523 72.8697 416.383C87.1737 419.815 101.911 421.101 117.082 425.819C138.322 432.253 133.554 432.253 147.858 445.977C149.591 447.693 153.926 447.693 154.793 448.98C155.66 449.838 165.629 468.709 165.629 469.567C167.797 478.145 166.93 499.161 169.53 505.594C172.998 513.743 172.131 508.597 174.732 519.319C178.633 535.188 190.77 557.491 205.507 565.211C213.743 569.5 228.047 571.645 234.982 576.363C238.45 578.507 239.317 582.367 241.484 583.654C252.321 589.659 287.864 585.37 300.868 583.654C306.503 583.225 315.172 584.941 319.94 583.654C322.107 583.225 321.674 578.936 324.274 578.078C327.742 576.792 332.077 578.507 335.111 577.649C335.544 577.649 344.647 569.071 345.08 568.642C345.947 567.356 343.78 564.354 345.947 561.78C348.981 557.92 365.453 549.342 366.32 547.626C367.62 545.482 380.624 514.601 381.057 512.457C382.358 494.872 384.525 485.865 391.46 469.567C392.761 466.993 390.593 463.562 392.327 459.273C397.095 446.406 403.163 446.406 411.833 439.973C414.867 437.828 415.3 433.968 417.901 432.682C422.669 430.966 427.871 431.824 433.072 430.537C440.874 428.393 447.376 421.959 451.711 420.672C464.714 415.955 484.653 417.241 496.79 413.81C498.524 413.381 521.931 397.941 523.664 396.225L550.972 360.198C548.805 343.471 550.972 325.886 548.371 309.159C547.938 305.299 537.968 284.712 536.235 282.138L535.801 281.28Z" fill="#EA5817"/>
<path d="M319.941 262.399C339.013 278.268 338.579 276.124 350.283 299.713C351.15 301.858 354.184 301 355.484 306.576C358.518 318.585 355.484 335.741 354.184 348.179C353.317 357.615 355.918 355.47 348.982 366.193C345.948 370.911 342.047 378.631 340.313 381.204C339.446 382.491 332.944 384.206 330.344 385.922C327.31 388.066 327.31 393.213 321.241 391.498L322.975 399.218C313.439 397.073 304.77 403.507 296.968 404.794C284.831 406.509 255.789 403.078 243.652 400.505C237.151 399.218 223.28 391.927 218.945 386.78C215.911 382.92 213.744 376.915 210.276 372.197C206.375 367.05 203.341 370.911 201.607 359.759C198.573 338.743 198.573 334.025 202.474 311.294C202.908 307.862 201.607 303.573 202.474 300.571C207.676 280.413 227.615 274.408 239.751 259.397L243.652 258.11C263.591 258.11 283.097 253.821 303.036 255.966C312.572 256.823 313.872 257.252 320.374 262.828L319.941 262.399Z" fill="#EA5817"/>
</g>
</svg>
