<svg width="180" height="180" viewBox="0 0 180 180" fill="none" xmlns="http://www.w3.org/2000/svg">
<g opacity="0.5">
<mask id="path-1-inside-1_709_3755" fill="white">
<path d="M142.588 15.7464C142.588 15.7464 146.956 19.4838 147.192 19.7174C147.9 20.535 149.67 23.922 150.261 24.3892C150.969 24.9732 152.267 24.9732 152.857 25.3236C154.864 26.7251 162.064 35.4848 163.835 37.9375C165.369 39.923 165.251 42.0253 166.668 44.0108C167.376 45.062 169.264 46.1132 169.382 46.23C169.737 46.8139 169.382 47.8651 169.737 48.6827C170.681 50.9018 170.681 49.1498 171.271 52.5369C171.861 55.924 173.042 55.6904 173.986 57.5591C174.694 58.9607 174.104 60.5958 174.576 61.647C175.048 62.9317 176.583 64.0997 176.819 65.1508C177.527 67.9539 178.117 71.341 178.825 74.4944C180.242 79.9838 180.124 92.2473 179.77 99.1383C179.77 101.124 179.888 101.941 179.888 102.993C179.888 103.343 178.943 103.81 178.707 104.511C178.589 104.978 179.061 106.029 178.825 106.73C178.235 109.416 177.763 111.752 177.291 114.322C176.347 119.344 173.632 121.446 171.979 125.651C171.035 127.987 171.389 131.491 169.264 134.41C168.202 135.929 166.432 136.513 165.133 138.148C161.946 142.236 162.182 144.688 157.461 148.776C153.92 151.813 151.205 156.368 147.428 159.638C145.657 161.157 140.936 162.091 140.345 163.025C139.991 163.609 140.582 164.31 140.463 164.777C139.519 168.398 136.45 166.529 134.326 167.464C133.617 167.814 132.083 169.566 130.903 170.267C130.076 170.851 124.174 174.004 123.82 174.238C122.404 174.705 120.987 174.238 119.925 174.471C119.335 174.588 119.453 175.639 118.745 175.99C110.01 179.143 87.347 180.661 77.9041 179.727C74.363 179.377 68.9333 177.158 65.1562 176.223C58.3101 174.588 59.0183 175.873 52.5263 171.902C50.5196 170.734 46.9785 169.216 45.09 167.931C41.903 165.828 38.9521 161.857 35.0569 161.974L35.529 159.872C34.7027 159.521 32.9322 159.521 32.342 159.054C31.7518 158.587 31.8699 157.653 31.5158 157.302C30.3354 155.784 25.1418 152.047 23.0171 149.827C21.1285 147.842 15.2267 140.951 14.1644 138.615C13.6922 137.564 14.1644 136.279 13.8103 135.578C13.6922 135.345 11.2135 134.41 10.2692 133.126C8.14452 129.855 6.1379 120.745 5.42968 116.658C2.95091 115.84 0.590183 107.781 0.708219 105.679C0.708219 104.978 1.53448 104.394 1.53448 104.044C1.53448 103.693 0.472146 102.759 0.236073 101.825C0 100.89 0.472146 98.4375 0.35411 97.2695C0.118037 92.3641 0.708219 88.3931 0.590183 83.2541C0.590183 82.3197 0 81.5022 0 80.5678C0 79.6334 1.18037 79.867 1.41644 78.8159C1.65251 77.7647 0.708219 76.9471 0.708219 76.0128C0.708219 75.0784 1.88858 73.2097 2.12466 71.6914C2.24269 70.2898 1.77055 67.7203 2.36073 66.0852C2.71484 65.2676 4.13128 65.1508 4.48539 63.7493C4.8395 62.3477 4.48539 61.063 4.8395 59.895C5.07557 59.1942 6.01986 58.8439 6.25594 58.1431C6.49201 57.2087 5.78379 55.34 6.96416 54.0553C7.55434 53.4713 9.08881 53.5881 9.32489 52.5369C9.56096 51.4858 9.20685 48.4491 10.1511 46.6971C10.5053 46.1132 11.9217 45.7628 12.5119 44.8284C13.2201 43.894 13.3381 42.2589 14.1644 41.2078C19.24 34.0832 23.9614 28.3603 30.5715 22.6373C31.0436 22.1701 32.1059 22.2869 32.342 22.0533C32.6961 21.7029 32.224 20.4182 32.9322 19.8342C33.6404 19.2502 36.1192 19.367 37.4176 18.0823C40.1324 15.396 41.7849 12.3593 46.5064 10.9577C47.5687 10.6074 48.9852 10.9577 49.8114 10.6074C50.6377 10.1402 50.4016 8.73863 51.2279 8.15466C52.4082 7.45389 54.887 7.45389 56.3034 6.9867C57.9559 6.40273 62.3233 3.24925 62.7954 3.01566C63.8578 2.66527 65.1562 3.01566 66.2185 2.78207C84.6322 -2.12334 103.636 -0.137815 121.814 5.58516C123.112 5.93555 123.112 7.68748 124.056 8.03786C125.355 8.50504 127.125 7.80427 128.542 8.27145C131.021 8.97223 135.27 13.7608 137.277 14.6952C138.693 15.2792 140.227 14.6952 141.88 15.6296L142.588 15.7464ZM160.884 76.5968C160.412 75.896 158.523 72.7425 158.287 72.6257C157.697 72.1585 148.608 67.0195 147.9 66.7859C144.477 65.7348 140.463 64.8004 137.158 63.9829C135.152 63.3989 131.965 63.3989 130.076 62.6981C127.834 61.8805 122.876 57.4423 121.932 55.1064C121.342 53.7049 121.814 51.8361 121.46 50.785C120.633 48.2155 119.099 45.4124 118.391 42.4925C117.919 40.7406 117.682 34.9008 117.328 34.2C117.092 33.4993 108.003 23.8052 107.177 23.4549C104.108 22.0533 101.393 22.2869 98.5605 21.5861C96.6719 21.1189 94.6653 19.7174 92.4226 19.367C85.8126 18.3159 74.7171 22.5205 70.1137 26.9587C62.7954 33.8496 63.5037 39.1054 60.6708 47.7483C60.3167 48.6827 59.1363 49.7338 59.0183 50.785C59.0183 51.4858 59.8445 51.9529 59.7265 52.5369C59.3724 55.34 56.3034 59.1942 54.0607 60.9462C51.818 62.8149 39.5422 64.8004 35.647 66.0852C29.9813 67.9539 22.7811 71.8082 19.5941 76.9471C18.5317 78.6991 18.1776 81.5022 17.5874 83.0205C17.3514 83.7213 15.6989 85.4732 14.7546 85.7068V86.4076C17.2333 88.8603 15.4628 92.5977 15.9349 94.4664C15.9349 94.9336 18.5317 101.241 18.7678 101.591C19.476 102.759 20.6564 102.993 21.4827 104.16C22.3089 105.328 22.545 107.781 22.663 107.898C22.8991 108.132 28.8009 109.767 30.0993 110.701C32.6961 112.57 30.5715 112.336 34.8208 113.387C38.716 114.322 42.7292 114.672 46.8605 115.957C52.6443 117.709 51.3459 117.709 55.2411 121.446C55.7132 121.913 56.8936 121.913 57.1297 122.264C57.3658 122.497 60.0806 127.636 60.0806 127.87C60.6708 130.206 60.4347 135.929 61.1429 137.681C62.0872 139.9 61.8512 138.498 62.5594 141.418C63.6217 145.74 66.9267 151.813 70.94 153.915C73.1827 155.083 77.0779 155.667 78.9665 156.952C79.9107 157.536 80.1468 158.587 80.737 158.938C83.6879 160.573 93.3669 159.405 96.908 158.938C98.4425 158.821 100.803 159.288 102.102 158.938C102.692 158.821 102.574 157.653 103.282 157.419C104.226 157.069 105.407 157.536 106.233 157.302C106.351 157.302 108.83 154.966 108.948 154.85C109.184 154.499 108.594 153.682 109.184 152.981C110.01 151.93 114.495 149.594 114.732 149.127C115.086 148.543 118.627 140.133 118.745 139.549C119.099 134.761 119.689 132.308 121.578 127.87C121.932 127.169 121.342 126.235 121.814 125.067C123.112 121.563 124.765 121.563 127.125 119.811C127.952 119.227 128.07 118.176 128.778 117.826C130.076 117.358 131.493 117.592 132.909 117.242C135.034 116.658 136.804 114.906 137.985 114.555C141.526 113.271 146.955 113.621 150.261 112.687C150.733 112.57 157.107 108.365 157.579 107.898L165.015 98.0871C164.425 93.5321 165.015 88.7435 164.307 84.1885C164.189 83.1373 161.474 77.5311 161.002 76.8304L160.884 76.5968Z"/>
</mask>
<path d="M142.588 15.7464C142.588 15.7464 146.956 19.4838 147.192 19.7174C147.9 20.535 149.67 23.922 150.261 24.3892C150.969 24.9732 152.267 24.9732 152.857 25.3236C154.864 26.7251 162.064 35.4848 163.835 37.9375C165.369 39.923 165.251 42.0253 166.668 44.0108C167.376 45.062 169.264 46.1132 169.382 46.23C169.737 46.8139 169.382 47.8651 169.737 48.6827C170.681 50.9018 170.681 49.1498 171.271 52.5369C171.861 55.924 173.042 55.6904 173.986 57.5591C174.694 58.9607 174.104 60.5958 174.576 61.647C175.048 62.9317 176.583 64.0997 176.819 65.1508C177.527 67.9539 178.117 71.341 178.825 74.4944C180.242 79.9838 180.124 92.2473 179.77 99.1383C179.77 101.124 179.888 101.941 179.888 102.993C179.888 103.343 178.943 103.81 178.707 104.511C178.589 104.978 179.061 106.029 178.825 106.73C178.235 109.416 177.763 111.752 177.291 114.322C176.347 119.344 173.632 121.446 171.979 125.651C171.035 127.987 171.389 131.491 169.264 134.41C168.202 135.929 166.432 136.513 165.133 138.148C161.946 142.236 162.182 144.688 157.461 148.776C153.92 151.813 151.205 156.368 147.428 159.638C145.657 161.157 140.936 162.091 140.345 163.025C139.991 163.609 140.582 164.31 140.463 164.777C139.519 168.398 136.45 166.529 134.326 167.464C133.617 167.814 132.083 169.566 130.903 170.267C130.076 170.851 124.174 174.004 123.82 174.238C122.404 174.705 120.987 174.238 119.925 174.471C119.335 174.588 119.453 175.639 118.745 175.99C110.01 179.143 87.347 180.661 77.9041 179.727C74.363 179.377 68.9333 177.158 65.1562 176.223C58.3101 174.588 59.0183 175.873 52.5263 171.902C50.5196 170.734 46.9785 169.216 45.09 167.931C41.903 165.828 38.9521 161.857 35.0569 161.974L35.529 159.872C34.7027 159.521 32.9322 159.521 32.342 159.054C31.7518 158.587 31.8699 157.653 31.5158 157.302C30.3354 155.784 25.1418 152.047 23.0171 149.827C21.1285 147.842 15.2267 140.951 14.1644 138.615C13.6922 137.564 14.1644 136.279 13.8103 135.578C13.6922 135.345 11.2135 134.41 10.2692 133.126C8.14452 129.855 6.1379 120.745 5.42968 116.658C2.95091 115.84 0.590183 107.781 0.708219 105.679C0.708219 104.978 1.53448 104.394 1.53448 104.044C1.53448 103.693 0.472146 102.759 0.236073 101.825C0 100.89 0.472146 98.4375 0.35411 97.2695C0.118037 92.3641 0.708219 88.3931 0.590183 83.2541C0.590183 82.3197 0 81.5022 0 80.5678C0 79.6334 1.18037 79.867 1.41644 78.8159C1.65251 77.7647 0.708219 76.9471 0.708219 76.0128C0.708219 75.0784 1.88858 73.2097 2.12466 71.6914C2.24269 70.2898 1.77055 67.7203 2.36073 66.0852C2.71484 65.2676 4.13128 65.1508 4.48539 63.7493C4.8395 62.3477 4.48539 61.063 4.8395 59.895C5.07557 59.1942 6.01986 58.8439 6.25594 58.1431C6.49201 57.2087 5.78379 55.34 6.96416 54.0553C7.55434 53.4713 9.08881 53.5881 9.32489 52.5369C9.56096 51.4858 9.20685 48.4491 10.1511 46.6971C10.5053 46.1132 11.9217 45.7628 12.5119 44.8284C13.2201 43.894 13.3381 42.2589 14.1644 41.2078C19.24 34.0832 23.9614 28.3603 30.5715 22.6373C31.0436 22.1701 32.1059 22.2869 32.342 22.0533C32.6961 21.7029 32.224 20.4182 32.9322 19.8342C33.6404 19.2502 36.1192 19.367 37.4176 18.0823C40.1324 15.396 41.7849 12.3593 46.5064 10.9577C47.5687 10.6074 48.9852 10.9577 49.8114 10.6074C50.6377 10.1402 50.4016 8.73863 51.2279 8.15466C52.4082 7.45389 54.887 7.45389 56.3034 6.9867C57.9559 6.40273 62.3233 3.24925 62.7954 3.01566C63.8578 2.66527 65.1562 3.01566 66.2185 2.78207C84.6322 -2.12334 103.636 -0.137815 121.814 5.58516C123.112 5.93555 123.112 7.68748 124.056 8.03786C125.355 8.50504 127.125 7.80427 128.542 8.27145C131.021 8.97223 135.27 13.7608 137.277 14.6952C138.693 15.2792 140.227 14.6952 141.88 15.6296L142.588 15.7464ZM160.884 76.5968C160.412 75.896 158.523 72.7425 158.287 72.6257C157.697 72.1585 148.608 67.0195 147.9 66.7859C144.477 65.7348 140.463 64.8004 137.158 63.9829C135.152 63.3989 131.965 63.3989 130.076 62.6981C127.834 61.8805 122.876 57.4423 121.932 55.1064C121.342 53.7049 121.814 51.8361 121.46 50.785C120.633 48.2155 119.099 45.4124 118.391 42.4925C117.919 40.7406 117.682 34.9008 117.328 34.2C117.092 33.4993 108.003 23.8052 107.177 23.4549C104.108 22.0533 101.393 22.2869 98.5605 21.5861C96.6719 21.1189 94.6653 19.7174 92.4226 19.367C85.8126 18.3159 74.7171 22.5205 70.1137 26.9587C62.7954 33.8496 63.5037 39.1054 60.6708 47.7483C60.3167 48.6827 59.1363 49.7338 59.0183 50.785C59.0183 51.4858 59.8445 51.9529 59.7265 52.5369C59.3724 55.34 56.3034 59.1942 54.0607 60.9462C51.818 62.8149 39.5422 64.8004 35.647 66.0852C29.9813 67.9539 22.7811 71.8082 19.5941 76.9471C18.5317 78.6991 18.1776 81.5022 17.5874 83.0205C17.3514 83.7213 15.6989 85.4732 14.7546 85.7068V86.4076C17.2333 88.8603 15.4628 92.5977 15.9349 94.4664C15.9349 94.9336 18.5317 101.241 18.7678 101.591C19.476 102.759 20.6564 102.993 21.4827 104.16C22.3089 105.328 22.545 107.781 22.663 107.898C22.8991 108.132 28.8009 109.767 30.0993 110.701C32.6961 112.57 30.5715 112.336 34.8208 113.387C38.716 114.322 42.7292 114.672 46.8605 115.957C52.6443 117.709 51.3459 117.709 55.2411 121.446C55.7132 121.913 56.8936 121.913 57.1297 122.264C57.3658 122.497 60.0806 127.636 60.0806 127.87C60.6708 130.206 60.4347 135.929 61.1429 137.681C62.0872 139.9 61.8512 138.498 62.5594 141.418C63.6217 145.74 66.9267 151.813 70.94 153.915C73.1827 155.083 77.0779 155.667 78.9665 156.952C79.9107 157.536 80.1468 158.587 80.737 158.938C83.6879 160.573 93.3669 159.405 96.908 158.938C98.4425 158.821 100.803 159.288 102.102 158.938C102.692 158.821 102.574 157.653 103.282 157.419C104.226 157.069 105.407 157.536 106.233 157.302C106.351 157.302 108.83 154.966 108.948 154.85C109.184 154.499 108.594 153.682 109.184 152.981C110.01 151.93 114.495 149.594 114.732 149.127C115.086 148.543 118.627 140.133 118.745 139.549C119.099 134.761 119.689 132.308 121.578 127.87C121.932 127.169 121.342 126.235 121.814 125.067C123.112 121.563 124.765 121.563 127.125 119.811C127.952 119.227 128.07 118.176 128.778 117.826C130.076 117.358 131.493 117.592 132.909 117.242C135.034 116.658 136.804 114.906 137.985 114.555C141.526 113.271 146.955 113.621 150.261 112.687C150.733 112.57 157.107 108.365 157.579 107.898L165.015 98.0871C164.425 93.5321 165.015 88.7435 164.307 84.1885C164.189 83.1373 161.474 77.5311 161.002 76.8304L160.884 76.5968Z" stroke="#FFC080" stroke-width="5" mask="url(#path-1-inside-1_709_3755)"/>
<path d="M89.5166 71.0222C92.1887 70.8043 94.7761 70.6674 97.3672 70.946L97.3887 70.948C98.7258 71.0683 99.2773 71.1485 99.7158 71.3201C100.128 71.4814 100.513 71.7537 101.408 72.5212L101.418 72.5095C104.019 74.6703 105.123 75.4844 106.035 76.5574C106.934 77.6142 107.634 78.9211 109.247 82.1716V82.1707C109.428 82.5616 109.696 82.8037 109.905 82.9548C110.004 83.026 110.107 83.0889 110.161 83.1228C110.227 83.1642 110.263 83.1879 110.294 83.2107C110.34 83.2445 110.368 83.271 110.398 83.3181C110.434 83.3735 110.503 83.5019 110.565 83.7693L110.568 83.78L110.571 83.7917C110.933 85.2254 110.947 87.0466 110.802 89.0144C110.655 90.9993 110.371 92.9099 110.186 94.6843L110.185 94.6921V94.7C110.12 95.4013 110.12 95.8934 110.124 96.2673C110.128 96.664 110.129 96.7954 110.106 96.9333C110.067 97.1717 109.935 97.5375 108.963 99.0408L108.961 99.0437C108.521 99.7272 108.029 100.611 107.605 101.378C107.227 102.062 106.919 102.617 106.715 102.949C106.707 102.953 106.699 102.958 106.689 102.963C106.527 103.04 106.302 103.13 106.017 103.242C105.531 103.432 104.744 103.722 104.249 104.049L104.231 104.06L104.216 104.071C103.824 104.348 103.567 104.696 103.404 104.932C103.2 105.229 103.156 105.317 103.055 105.436C103.049 105.443 103.043 105.448 103.038 105.453C102.996 105.451 102.919 105.442 102.798 105.408L100.778 104.837L101.238 106.885L101.346 107.364C100.418 107.432 99.5598 107.678 98.8027 107.94C98.2191 108.142 97.5423 108.413 97.0576 108.59C96.5185 108.786 96.0623 108.927 95.6504 108.996C94.1552 109.202 91.4975 109.102 88.7051 108.841C85.9318 108.581 83.1793 108.178 81.5889 107.841L81.5811 107.839L81.5723 107.837C80.8752 107.699 79.6209 107.188 78.3418 106.491C77.0534 105.789 75.9992 105.038 75.5654 104.528C75.244 104.112 74.9467 103.559 74.5713 102.845C74.2109 102.161 73.7851 101.346 73.248 100.615L73.2422 100.607L73.2373 100.599L73.0977 100.426C72.7738 100.039 72.4526 99.7881 72.1514 99.6003C71.999 99.5054 71.8441 99.4226 71.7578 99.3748C71.6566 99.3186 71.6104 99.29 71.5781 99.2664C71.5553 99.2496 71.5096 99.2219 71.4355 99.0603C71.3666 98.9098 71.2832 98.6609 71.1992 98.2468L71.1152 97.7761C70.7032 94.9213 70.5124 93.261 70.54 91.5642C70.5678 89.8609 70.8162 88.0779 71.3477 84.9812L71.3525 84.9539L71.3564 84.9265C71.4364 84.2933 71.3557 83.6005 71.3174 83.158C71.2702 82.6127 71.2739 82.3477 71.3174 82.197L71.3223 82.1794L71.3262 82.1619C71.9351 79.8023 73.3994 78.2317 75.2783 76.6824C77.0029 75.2603 79.2637 73.7408 80.9951 71.7136L81.5391 71.5339C84.25 71.5195 86.9431 71.2321 89.5166 71.0222ZM106.812 102.899H106.811H106.812Z" stroke="#FFC080" stroke-width="2.5"/>
</g>
</svg>
