<svg width="210" height="417" viewBox="0 0 210 417" fill="none" xmlns="http://www.w3.org/2000/svg">
<g opacity="0.1">
<path d="M39.7926 83.4219C-7.33146 83.4219 -45.582 120.689 -45.582 166.67V242.412C-45.582 250.866 -44.2898 258.975 -41.8776 266.653C-38.087 281.06 -31.2811 294.345 -21.6323 305.301C-6.46995 322.64 13.7753 332.302 35.3128 332.561H36.6912H39.9649H43.2386H44.617C66.1544 332.302 86.3135 322.64 101.476 305.301C111.211 294.086 118.189 280.542 121.893 265.877C124.133 258.458 125.339 250.521 125.339 242.412V166.67C125.339 120.689 87.0889 83.4219 39.9649 83.4219H39.7926ZM27.4731 309.959C-2.07632 305.56 -25.5952 278.472 -29.2135 244.741H5.50489C17.652 244.741 27.4731 256.042 27.4731 269.931V309.959ZM29.9715 229.127C4.72954 225.159 -15.3434 205.231 -19.2201 180.386H11.1046C21.5288 180.386 29.9715 188.668 29.9715 198.933V229.213V229.127ZM41.9463 168.222C39.7064 170.465 40.4818 170.465 38.2419 168.222L23.6825 153.73C18.1689 148.208 18.1689 139.323 23.6825 133.802L37.9834 119.395C40.3095 116.98 40.051 116.98 42.2909 119.395L56.5918 133.802C62.1054 139.323 62.0192 148.208 56.5918 153.73L42.0325 168.222H41.9463ZM49.6137 198.847C49.6137 188.668 58.0563 180.3 68.4805 180.3H98.8053C94.9285 205.231 74.8556 225.072 49.6137 229.041V198.761V198.847ZM52.1982 309.959V269.931C52.1982 256.042 62.0192 244.741 74.1664 244.741H108.799C105.267 278.472 81.7476 305.56 52.2843 309.959H52.1982Z" fill="#FDFDFC"/>
<path d="M43.8299 373.968H36.2487C3.5117 373.968 -27.33 361.114 -50.6766 337.736C-74.0233 314.357 -86.7734 283.387 -86.7734 250.606V165.546C-86.7734 132.679 -73.9371 101.795 -50.6766 78.4167C-27.33 55.0384 3.5117 42.1846 36.2487 42.1846H43.8299C76.5668 42.1846 107.409 55.0384 130.755 78.4167C154.102 101.795 166.852 132.765 166.852 165.546V250.606C166.852 283.474 154.016 314.357 130.755 337.736C107.409 361.114 76.5668 373.968 43.8299 373.968ZM36.2487 61.3359C-21.041 61.3359 -67.6482 108.093 -67.6482 165.546V250.606C-67.6482 308.06 -21.041 354.816 36.2487 354.816H43.8299C101.12 354.816 147.727 308.06 147.727 250.606V165.546C147.727 108.093 101.12 61.3359 43.8299 61.3359H36.2487Z" fill="#FDFDFC"/>
<path d="M42.8038 416.152H37.204C-7.16318 416.152 -48.9459 398.726 -80.5629 367.153C-112.18 335.579 -129.496 293.739 -129.496 249.312V166.84C-129.496 122.413 -112.094 80.5734 -80.5629 48.9997C-48.9459 17.4259 -7.16318 0 37.204 0H42.8038C87.171 0 128.954 17.4259 160.571 48.9997C192.188 80.5734 209.504 122.413 209.504 166.84V249.312C209.504 293.739 192.102 335.579 160.571 367.153C128.954 398.726 87.171 416.152 42.8038 416.152ZM37.204 19.4101C-44.0354 19.4101 -110.112 85.5769 -110.112 166.84V249.312C-110.112 330.575 -44.0354 396.742 37.204 396.742H42.8038C124.043 396.742 190.12 330.575 190.12 249.312V166.84C190.12 85.5769 124.043 19.4101 42.8038 19.4101H37.204Z" fill="#FDFDFC"/>
</g>
</svg>
